# xmcd
#
# Track frame offsets: 
#        150
#        17626
#        30572
#        49422
#        79595
#        104658
#        120156
#        141421
#        158565
#        177882
#        191182
#        207477
#        223698
#        240575
#
# Disc length: 3481 seconds
#
# Revision: 3
# Processed by: cddbd v1.5.2PL0 Copyright (c) Steve Scherf et al.
# Submitted via: ExactAudioCopy v0.99pb4
#
DISCID=c20d970e
DTITLE=Keith Thompson - And Strange Brew
DYEAR=1998
DGENRE=Blues
TTITLE0=cat scratch crazy
TTITLE1=you don't know me
TTITLE2=i'm tore down
TTITLE3=reduce me to tears
TTITLE4=little boy
TTITLE5=road to recovery
TTITLE6=i'm not your victim
TTITLE7=heart and soul
TTITLE8=got my mind made up
TTITLE9=count on you
TTITLE10=blues don't love you
TTITLE11=be good to yourself
TTITLE12=crossroads
TTITLE13=higher ground
EXTD=
EXTT0=
EXTT1=
EXTT2=
EXTT3=
EXTT4=
EXTT5=
EXTT6=
EXTT7=
EXTT8=
EXTT9=
EXTT10=
EXTT11=
EXTT12=
EXTT13=
PLAYORDER=
